<svg width="1610" height="623" viewBox="0 0 1610 623" fill="none" xmlns="http://www.w3.org/2000/svg">
<path d="M27.5981 550.455H35.8012V589.126C35.8012 592.624 35.1088 595.616 33.7238 598.102C32.3566 600.588 30.4301 602.488 27.9443 603.801C25.4585 605.098 22.5466 605.746 19.2085 605.746C16.1368 605.746 13.3758 605.186 10.9255 604.068C8.49299 602.949 6.5665 601.325 5.14604 599.194C3.74334 597.045 3.04199 594.435 3.04199 591.364H11.2185C11.2185 592.873 11.5647 594.178 12.2572 595.279C12.9674 596.38 13.9351 597.241 15.1602 597.862C16.4031 598.466 17.8236 598.768 19.4216 598.768C21.1617 598.768 22.6354 598.404 23.8428 597.676C25.0679 596.93 26.0001 595.838 26.6393 594.4C27.2785 592.962 27.5981 591.204 27.5981 589.126V550.455ZM90.356 550.455H98.6124V586.33C98.6124 590.147 97.7157 593.53 95.9224 596.477C94.1291 599.407 91.6078 601.715 88.3585 603.402C85.1092 605.071 81.3006 605.906 76.9327 605.906C72.5826 605.906 68.7828 605.071 65.5336 603.402C62.2843 601.715 59.763 599.407 57.9696 596.477C56.1763 593.53 55.2797 590.147 55.2797 586.33V550.455H63.5094V585.664C63.5094 588.132 64.051 590.325 65.1341 592.243C66.2349 594.16 67.7885 595.669 69.7949 596.77C71.8013 597.853 74.1806 598.395 76.9327 598.395C79.7026 598.395 82.0907 597.853 84.0971 596.77C86.1213 595.669 87.666 594.16 88.7314 592.243C89.8145 590.325 90.356 588.132 90.356 585.664V550.455ZM147.827 564.783C147.543 562.262 146.371 560.309 144.312 558.924C142.252 557.521 139.66 556.82 136.535 556.82C134.297 556.82 132.362 557.175 130.728 557.885C129.095 558.578 127.825 559.537 126.92 560.762C126.032 561.969 125.588 563.345 125.588 564.89C125.588 566.186 125.89 567.305 126.494 568.246C127.115 569.187 127.923 569.977 128.917 570.616C129.929 571.238 131.013 571.761 132.167 572.188C133.321 572.596 134.43 572.933 135.496 573.2L140.823 574.585C142.563 575.011 144.347 575.588 146.176 576.316C148.005 577.044 149.7 578.002 151.263 579.192C152.825 580.382 154.086 581.855 155.045 583.613C156.021 585.371 156.51 587.475 156.51 589.925C156.51 593.015 155.711 595.758 154.113 598.155C152.532 600.552 150.233 602.443 147.215 603.828C144.214 605.213 140.583 605.906 136.321 605.906C132.238 605.906 128.704 605.257 125.721 603.961C122.738 602.665 120.403 600.827 118.717 598.448C117.03 596.051 116.098 593.21 115.92 589.925H124.177C124.336 591.896 124.976 593.539 126.094 594.853C127.231 596.149 128.678 597.116 130.435 597.756C132.211 598.377 134.155 598.688 136.268 598.688C138.594 598.688 140.663 598.324 142.474 597.596C144.303 596.85 145.741 595.82 146.788 594.506C147.836 593.175 148.36 591.621 148.36 589.846C148.36 588.23 147.898 586.907 146.975 585.877C146.069 584.847 144.835 583.995 143.273 583.32C141.728 582.646 139.979 582.051 138.026 581.536L131.581 579.778C127.213 578.588 123.75 576.839 121.194 574.531C118.655 572.223 117.385 569.169 117.385 565.369C117.385 562.227 118.237 559.483 119.942 557.14C121.646 554.796 123.955 552.976 126.867 551.68C129.778 550.366 133.063 549.709 136.721 549.709C140.414 549.709 143.672 550.357 146.495 551.653C149.336 552.949 151.574 554.734 153.207 557.006C154.841 559.261 155.693 561.854 155.764 564.783H147.827ZM171.154 557.539V550.455H213.368V557.539H196.349V605H188.146V557.539H171.154ZM238.426 550.455V605H230.197V550.455H238.426ZM303.215 568.192H294.905C294.586 566.417 293.991 564.854 293.121 563.505C292.251 562.156 291.186 561.01 289.925 560.069C288.664 559.128 287.253 558.418 285.69 557.939C284.146 557.459 282.503 557.219 280.763 557.219C277.62 557.219 274.806 558.01 272.32 559.59C269.852 561.17 267.899 563.487 266.461 566.541C265.04 569.595 264.33 573.324 264.33 577.727C264.33 582.166 265.04 585.913 266.461 588.967C267.899 592.021 269.861 594.329 272.347 595.891C274.833 597.454 277.629 598.235 280.736 598.235C282.459 598.235 284.092 598.004 285.637 597.543C287.199 597.063 288.611 596.362 289.872 595.439C291.132 594.515 292.198 593.388 293.068 592.056C293.956 590.707 294.568 589.162 294.905 587.422L303.215 587.449C302.771 590.13 301.91 592.598 300.632 594.853C299.371 597.09 297.746 599.025 295.758 600.659C293.787 602.275 291.532 603.526 288.993 604.414C286.454 605.302 283.684 605.746 280.683 605.746C275.96 605.746 271.752 604.627 268.059 602.39C264.366 600.135 261.454 596.912 259.323 592.722C257.21 588.532 256.154 583.533 256.154 577.727C256.154 571.903 257.219 566.905 259.35 562.733C261.48 558.542 264.392 555.328 268.085 553.091C271.779 550.836 275.978 549.709 280.683 549.709C283.577 549.709 286.276 550.126 288.78 550.961C291.301 551.777 293.565 552.985 295.571 554.583C297.578 556.163 299.238 558.098 300.552 560.389C301.866 562.662 302.753 565.263 303.215 568.192ZM320.563 605V550.455H354.76V557.539H328.793V574.158H352.976V581.216H328.793V597.915H355.08V605H320.563ZM404.734 584.15C403.034 584.15 401.559 583.525 400.309 582.275C399.059 581.025 398.434 579.55 398.434 577.85C398.434 576.1 399.059 574.625 400.309 573.425C401.559 572.175 403.034 571.55 404.734 571.55C406.484 571.55 407.959 572.175 409.159 573.425C410.409 574.625 411.034 576.1 411.034 577.85C411.034 579.55 410.409 581.025 409.159 582.275C407.959 583.525 406.484 584.15 404.734 584.15ZM455.665 605V550.455H475.108C479.351 550.455 482.867 551.227 485.655 552.772C488.442 554.316 490.529 556.429 491.914 559.11C493.299 561.774 493.991 564.775 493.991 568.113C493.991 571.468 493.29 574.487 491.887 577.168C490.502 579.831 488.407 581.944 485.601 583.507C482.814 585.051 479.307 585.824 475.081 585.824H461.711V578.846H474.335C477.017 578.846 479.192 578.384 480.861 577.461C482.53 576.52 483.755 575.241 484.536 573.626C485.317 572.01 485.708 570.172 485.708 568.113C485.708 566.053 485.317 564.224 484.536 562.626C483.755 561.028 482.521 559.776 480.834 558.871C479.165 557.965 476.963 557.512 474.229 557.512H463.895V605H455.665ZM509.96 605H501.225L520.854 550.455H530.362L549.991 605H541.255L525.834 560.362H525.408L509.96 605ZM511.425 583.64H539.763V590.565H511.425V583.64ZM565.368 605V550.455H584.81C589.036 550.455 592.543 551.183 595.33 552.638C598.136 554.094 600.231 556.11 601.616 558.684C603.001 561.241 603.693 564.197 603.693 567.553C603.693 570.891 602.992 573.83 601.589 576.369C600.204 578.89 598.109 580.852 595.304 582.255C592.516 583.658 589.009 584.359 584.783 584.359H570.055V577.275H584.038C586.701 577.275 588.867 576.893 590.536 576.129C592.223 575.366 593.457 574.256 594.238 572.8C595.02 571.344 595.41 569.595 595.41 567.553C595.41 565.494 595.011 563.709 594.212 562.2C593.43 560.691 592.196 559.537 590.51 558.738C588.841 557.921 586.648 557.512 583.931 557.512H573.597V605H565.368ZM592.294 580.391L605.771 605H596.396L583.185 580.391H592.294ZM618.517 557.539V550.455H660.732V557.539H643.713V605H635.51V557.539H618.517ZM721.585 550.455V605H714.021L686.296 564.996H685.79V605H677.56V550.455H685.177L712.929 590.511H713.435V550.455H721.585ZM741.09 605V550.455H775.288V557.539H749.32V574.158H773.503V581.216H749.32V597.915H775.607V605H741.09ZM793.781 605V550.455H813.223C817.449 550.455 820.956 551.183 823.743 552.638C826.549 554.094 828.644 556.11 830.029 558.684C831.414 561.241 832.106 564.197 832.106 567.553C832.106 570.891 831.405 573.83 830.002 576.369C828.617 578.89 826.522 580.852 823.717 582.255C820.929 583.658 817.422 584.359 813.196 584.359H798.468V577.275H812.451C815.114 577.275 817.28 576.893 818.949 576.129C820.636 575.366 821.87 574.256 822.651 572.8C823.433 571.344 823.823 569.595 823.823 567.553C823.823 565.494 823.424 563.709 822.625 562.2C821.843 560.691 820.609 559.537 818.923 558.738C817.254 557.921 815.061 557.512 812.344 557.512H802.01V605H793.781ZM820.707 580.391L834.184 605H824.809L811.598 580.391H820.707ZM879.37 564.783C879.086 562.262 877.914 560.309 875.854 558.924C873.795 557.521 871.203 556.82 868.078 556.82C865.84 556.82 863.905 557.175 862.271 557.885C860.638 558.578 859.368 559.537 858.463 560.762C857.575 561.969 857.131 563.345 857.131 564.89C857.131 566.186 857.433 567.305 858.037 568.246C858.658 569.187 859.466 569.977 860.46 570.616C861.472 571.238 862.555 571.761 863.71 572.188C864.864 572.596 865.973 572.933 867.039 573.2L872.366 574.585C874.106 575.011 875.89 575.588 877.719 576.316C879.548 577.044 881.243 578.002 882.806 579.192C884.368 580.382 885.629 581.855 886.588 583.613C887.564 585.371 888.053 587.475 888.053 589.925C888.053 593.015 887.254 595.758 885.656 598.155C884.075 600.552 881.776 602.443 878.758 603.828C875.757 605.213 872.126 605.906 867.864 605.906C863.781 605.906 860.247 605.257 857.264 603.961C854.281 602.665 851.946 600.827 850.26 598.448C848.573 596.051 847.641 593.21 847.463 589.925H855.72C855.879 591.896 856.519 593.539 857.637 594.853C858.774 596.149 860.221 597.116 861.978 597.756C863.754 598.377 865.698 598.688 867.811 598.688C870.137 598.688 872.206 598.324 874.017 597.596C875.846 596.85 877.284 595.82 878.331 594.506C879.379 593.175 879.903 591.621 879.903 589.846C879.903 588.23 879.441 586.907 878.518 585.877C877.612 584.847 876.378 583.995 874.816 583.32C873.271 582.646 871.522 582.051 869.569 581.536L863.124 579.778C858.756 578.588 855.293 576.839 852.737 574.531C850.198 572.223 848.928 569.169 848.928 565.369C848.928 562.227 849.78 559.483 851.485 557.14C853.189 554.796 855.498 552.976 858.41 551.68C861.321 550.366 864.606 549.709 868.264 549.709C871.957 549.709 875.215 550.357 878.038 551.653C880.879 552.949 883.117 554.734 884.75 557.006C886.384 559.261 887.236 561.854 887.307 564.783H879.37ZM905.387 605V550.455H913.617V574.158H940.81V550.455H949.066V605H940.81V581.216H913.617V605H905.387ZM976.781 550.455V605H968.551V550.455H976.781ZM996.266 605V550.455H1015.71C1019.95 550.455 1023.47 551.227 1026.26 552.772C1029.04 554.316 1031.13 556.429 1032.51 559.11C1033.9 561.774 1034.59 564.775 1034.59 568.113C1034.59 571.468 1033.89 574.487 1032.49 577.168C1031.1 579.831 1029.01 581.944 1026.2 583.507C1023.41 585.051 1019.91 585.824 1015.68 585.824H1002.31V578.846H1014.94C1017.62 578.846 1019.79 578.384 1021.46 577.461C1023.13 576.52 1024.36 575.241 1025.14 573.626C1025.92 572.01 1026.31 570.172 1026.31 568.113C1026.31 566.053 1025.92 564.224 1025.14 562.626C1024.36 561.028 1023.12 559.776 1021.43 558.871C1019.77 557.965 1017.56 557.512 1014.83 557.512H1004.5V605H996.266ZM1083.22 584.15C1081.52 584.15 1080.05 583.525 1078.8 582.275C1077.55 581.025 1076.92 579.55 1076.92 577.85C1076.92 576.1 1077.55 574.625 1078.8 573.425C1080.05 572.175 1081.52 571.55 1083.22 571.55C1084.97 571.55 1086.45 572.175 1087.65 573.425C1088.9 574.625 1089.52 576.1 1089.52 577.85C1089.52 579.55 1088.9 581.025 1087.65 582.275C1086.45 583.525 1084.97 584.15 1083.22 584.15ZM1134.15 605V550.455H1153.59C1157.84 550.455 1161.35 551.227 1164.14 552.772C1166.93 554.316 1169.02 556.429 1170.4 559.11C1171.78 561.774 1172.48 564.775 1172.48 568.113C1172.48 571.468 1171.78 574.487 1170.37 577.168C1168.99 579.831 1166.89 581.944 1164.09 583.507C1161.3 585.051 1157.79 585.824 1153.57 585.824H1140.2V578.846H1152.82C1155.5 578.846 1157.68 578.384 1159.35 577.461C1161.02 576.52 1162.24 575.241 1163.02 573.626C1163.8 572.01 1164.19 570.172 1164.19 568.113C1164.19 566.053 1163.8 564.224 1163.02 562.626C1162.24 561.028 1161.01 559.776 1159.32 558.871C1157.65 557.965 1155.45 557.512 1152.72 557.512H1142.38V605H1134.15ZM1189.63 605V550.455H1209.07C1213.29 550.455 1216.8 551.183 1219.59 552.638C1222.39 554.094 1224.49 556.11 1225.87 558.684C1227.26 561.241 1227.95 564.197 1227.95 567.553C1227.95 570.891 1227.25 573.83 1225.85 576.369C1224.46 578.89 1222.37 580.852 1219.56 582.255C1216.77 583.658 1213.27 584.359 1209.04 584.359H1194.31V577.275H1208.3C1210.96 577.275 1213.13 576.893 1214.79 576.129C1216.48 575.366 1217.71 574.256 1218.5 572.8C1219.28 571.344 1219.67 569.595 1219.67 567.553C1219.67 565.494 1219.27 563.709 1218.47 562.2C1217.69 560.691 1216.45 559.537 1214.77 558.738C1213.1 557.921 1210.91 557.512 1208.19 557.512H1197.86V605H1189.63ZM1216.55 580.391L1230.03 605H1220.65L1207.44 580.391H1216.55ZM1292.85 577.727C1292.85 583.551 1291.78 588.558 1289.65 592.749C1287.52 596.921 1284.6 600.135 1280.89 602.39C1277.19 604.627 1273 605.746 1268.29 605.746C1263.57 605.746 1259.35 604.627 1255.64 602.39C1251.95 600.135 1249.03 596.912 1246.9 592.722C1244.77 588.532 1243.71 583.533 1243.71 577.727C1243.71 571.903 1244.77 566.905 1246.9 562.733C1249.03 558.542 1251.95 555.328 1255.64 553.091C1259.35 550.836 1263.57 549.709 1268.29 549.709C1273 549.709 1277.19 550.836 1280.89 553.091C1284.6 555.328 1287.52 558.542 1289.65 562.733C1291.78 566.905 1292.85 571.903 1292.85 577.727ZM1284.7 577.727C1284.7 573.288 1283.98 569.551 1282.54 566.515C1281.12 563.461 1279.17 561.152 1276.68 559.59C1274.21 558.01 1271.42 557.219 1268.29 557.219C1265.15 557.219 1262.34 558.01 1259.87 559.59C1257.41 561.152 1255.45 563.461 1254.01 566.515C1252.59 569.551 1251.88 573.288 1251.88 577.727C1251.88 582.166 1252.59 585.913 1254.01 588.967C1255.45 592.003 1257.41 594.311 1259.87 595.891C1262.34 597.454 1265.15 598.235 1268.29 598.235C1271.42 598.235 1274.21 597.454 1276.68 595.891C1279.17 594.311 1281.12 592.003 1282.54 588.967C1283.98 585.913 1284.7 582.166 1284.7 577.727ZM1347.52 567.686C1347.01 566.071 1346.31 564.624 1345.44 563.345C1344.59 562.049 1343.57 560.948 1342.38 560.043C1341.19 559.119 1339.83 558.418 1338.31 557.939C1336.8 557.459 1335.14 557.219 1333.33 557.219C1330.25 557.219 1327.48 558.01 1325.02 559.59C1322.55 561.17 1320.59 563.487 1319.16 566.541C1317.74 569.577 1317.03 573.297 1317.03 577.701C1317.03 582.122 1317.74 585.859 1319.18 588.913C1320.62 591.967 1322.59 594.284 1325.1 595.865C1327.6 597.445 1330.45 598.235 1333.64 598.235C1336.61 598.235 1339.19 597.631 1341.4 596.424C1343.61 595.217 1345.33 593.512 1346.54 591.31C1347.76 589.091 1348.37 586.481 1348.37 583.48L1350.5 583.88H1334.9V577.088H1356.34V583.294C1356.34 587.875 1355.36 591.852 1353.41 595.225C1351.47 598.581 1348.79 601.174 1345.36 603.002C1341.95 604.831 1338.05 605.746 1333.64 605.746C1328.71 605.746 1324.38 604.609 1320.65 602.337C1316.94 600.064 1314.04 596.841 1311.97 592.669C1309.89 588.478 1308.85 583.507 1308.85 577.754C1308.85 573.404 1309.45 569.498 1310.66 566.035C1311.87 562.573 1313.56 559.634 1315.75 557.219C1317.95 554.787 1320.53 552.931 1323.5 551.653C1326.48 550.357 1329.74 549.709 1333.27 549.709C1336.22 549.709 1338.96 550.144 1341.5 551.014C1344.06 551.884 1346.33 553.118 1348.32 554.716C1350.33 556.314 1351.99 558.214 1353.3 560.415C1354.61 562.599 1355.5 565.023 1355.96 567.686H1347.52ZM1374.28 605V550.455H1393.73C1397.95 550.455 1401.46 551.183 1404.25 552.638C1407.05 554.094 1409.15 556.11 1410.53 558.684C1411.92 561.241 1412.61 564.197 1412.61 567.553C1412.61 570.891 1411.91 573.83 1410.51 576.369C1409.12 578.89 1407.03 580.852 1404.22 582.255C1401.43 583.658 1397.93 584.359 1393.7 584.359H1378.97V577.275H1392.95C1395.62 577.275 1397.78 576.893 1399.45 576.129C1401.14 575.366 1402.37 574.256 1403.15 572.8C1403.94 571.344 1404.33 569.595 1404.33 567.553C1404.33 565.494 1403.93 563.709 1403.13 562.2C1402.35 560.691 1401.11 559.537 1399.43 558.738C1397.76 557.921 1395.56 557.512 1392.85 557.512H1382.51V605H1374.28ZM1401.21 580.391L1414.69 605H1405.31L1392.1 580.391H1401.21ZM1430.12 605V550.455H1464.32V557.539H1438.35V574.158H1462.54V581.216H1438.35V597.915H1464.64V605H1430.12ZM1512.56 564.783C1512.28 562.262 1511.11 560.309 1509.05 558.924C1506.99 557.521 1504.4 556.82 1501.27 556.82C1499.03 556.82 1497.1 557.175 1495.46 557.885C1493.83 558.578 1492.56 559.537 1491.66 560.762C1490.77 561.969 1490.32 563.345 1490.32 564.89C1490.32 566.186 1490.63 567.305 1491.23 568.246C1491.85 569.187 1492.66 569.977 1493.65 570.616C1494.67 571.238 1495.75 571.761 1496.9 572.188C1498.06 572.596 1499.17 572.933 1500.23 573.2L1505.56 574.585C1507.3 575.011 1509.08 575.588 1510.91 576.316C1512.74 577.044 1514.44 578.002 1516 579.192C1517.56 580.382 1518.82 581.855 1519.78 583.613C1520.76 585.371 1521.25 587.475 1521.25 589.925C1521.25 593.015 1520.45 595.758 1518.85 598.155C1517.27 600.552 1514.97 602.443 1511.95 603.828C1508.95 605.213 1505.32 605.906 1501.06 605.906C1496.97 605.906 1493.44 605.257 1490.46 603.961C1487.47 602.665 1485.14 600.827 1483.45 598.448C1481.77 596.051 1480.83 593.21 1480.66 589.925H1488.91C1489.07 591.896 1489.71 593.539 1490.83 594.853C1491.97 596.149 1493.41 597.116 1495.17 597.756C1496.95 598.377 1498.89 598.688 1501 598.688C1503.33 598.688 1505.4 598.324 1507.21 597.596C1509.04 596.85 1510.48 595.82 1511.52 594.506C1512.57 593.175 1513.1 591.621 1513.1 589.846C1513.1 588.23 1512.63 586.907 1511.71 585.877C1510.81 584.847 1509.57 583.995 1508.01 583.32C1506.46 582.646 1504.72 582.051 1502.76 581.536L1496.32 579.778C1491.95 578.588 1488.49 576.839 1485.93 574.531C1483.39 572.223 1482.12 569.169 1482.12 565.369C1482.12 562.227 1482.97 559.483 1484.68 557.14C1486.38 554.796 1488.69 552.976 1491.6 551.68C1494.51 550.366 1497.8 549.709 1501.46 549.709C1505.15 549.709 1508.41 550.357 1511.23 551.653C1514.07 552.949 1516.31 554.734 1517.94 557.006C1519.58 559.261 1520.43 561.854 1520.5 564.783H1512.56ZM1568.33 564.783C1568.05 562.262 1566.87 560.309 1564.81 558.924C1562.75 557.521 1560.16 556.82 1557.04 556.82C1554.8 556.82 1552.86 557.175 1551.23 557.885C1549.6 558.578 1548.33 559.537 1547.42 560.762C1546.53 561.969 1546.09 563.345 1546.09 564.89C1546.09 566.186 1546.39 567.305 1547 568.246C1547.62 569.187 1548.43 569.977 1549.42 570.616C1550.43 571.238 1551.52 571.761 1552.67 572.188C1553.82 572.596 1554.93 572.933 1556 573.2L1561.33 574.585C1563.07 575.011 1564.85 575.588 1566.68 576.316C1568.51 577.044 1570.2 578.002 1571.77 579.192C1573.33 580.382 1574.59 581.855 1575.55 583.613C1576.52 585.371 1577.01 587.475 1577.01 589.925C1577.01 593.015 1576.21 595.758 1574.62 598.155C1573.04 600.552 1570.74 602.443 1567.72 603.828C1564.72 605.213 1561.09 605.906 1556.82 605.906C1552.74 605.906 1549.21 605.257 1546.22 603.961C1543.24 602.665 1540.91 600.827 1539.22 598.448C1537.53 596.051 1536.6 593.21 1536.42 589.925H1544.68C1544.84 591.896 1545.48 593.539 1546.6 594.853C1547.73 596.149 1549.18 597.116 1550.94 597.756C1552.71 598.377 1554.66 598.688 1556.77 598.688C1559.1 598.688 1561.17 598.324 1562.98 597.596C1564.81 596.85 1566.24 595.82 1567.29 594.506C1568.34 593.175 1568.86 591.621 1568.86 589.846C1568.86 588.23 1568.4 586.907 1567.48 585.877C1566.57 584.847 1565.34 583.995 1563.78 583.32C1562.23 582.646 1560.48 582.051 1558.53 581.536L1552.08 579.778C1547.72 578.588 1544.25 576.839 1541.7 574.531C1539.16 572.223 1537.89 569.169 1537.89 565.369C1537.89 562.227 1538.74 559.483 1540.44 557.14C1542.15 554.796 1544.46 552.976 1547.37 551.68C1550.28 550.366 1553.57 549.709 1557.22 549.709C1560.92 549.709 1564.18 550.357 1567 551.653C1569.84 552.949 1572.08 554.734 1573.71 557.006C1575.34 559.261 1576.2 561.854 1576.27 564.783H1568.33ZM1598.95 605.506C1597.5 605.506 1596.25 604.991 1595.2 603.961C1594.15 602.914 1593.63 601.653 1593.63 600.179C1593.63 598.723 1594.15 597.48 1595.2 596.451C1596.25 595.403 1597.5 594.879 1598.95 594.879C1600.41 594.879 1601.66 595.403 1602.71 596.451C1603.76 597.48 1604.28 598.723 1604.28 600.179C1604.28 601.156 1604.03 602.053 1603.54 602.869C1603.06 603.668 1602.42 604.308 1601.62 604.787C1600.82 605.266 1599.93 605.506 1598.95 605.506Z" fill="white"/>
<path d="M757.481 106.49C765.973 108.297 772.326 111.188 776.542 115.162C782.383 120.702 785.304 127.477 785.304 135.487C785.304 141.569 783.377 147.411 779.522 153.011C775.668 158.552 770.369 162.617 763.624 165.206C756.939 167.735 746.702 169 732.911 169H675.099V165.658H679.706C684.824 165.658 688.498 164.032 690.726 160.78C692.111 158.672 692.804 154.186 692.804 147.32V68.1895C692.804 60.6016 691.931 55.814 690.184 53.8267C687.835 51.1769 684.343 49.8521 679.706 49.8521H675.099V46.5098H728.033C737.91 46.5098 745.829 47.2324 751.791 48.6777C760.824 50.8457 767.719 54.6999 772.477 60.2402C777.234 65.7204 779.613 72.0436 779.613 79.21C779.613 85.3525 777.746 90.8628 774.012 95.7407C770.278 100.558 764.768 104.142 757.481 106.49ZM710.147 101.612C712.376 102.034 714.905 102.365 717.735 102.606C720.626 102.787 723.788 102.877 727.22 102.877C736.013 102.877 742.607 101.944 747.003 100.077C751.459 98.1496 754.862 95.2288 757.21 91.3145C759.559 87.4001 760.733 83.1243 760.733 78.4873C760.733 71.321 757.813 65.2085 751.971 60.1499C746.13 55.0913 737.608 52.562 726.407 52.562C720.385 52.562 714.965 53.2244 710.147 54.5493V101.612ZM710.147 160.147C717.133 161.773 724.028 162.586 730.833 162.586C741.734 162.586 750.044 160.147 755.765 155.27C761.486 150.331 764.347 144.249 764.347 137.022C764.347 132.265 763.052 127.688 760.462 123.292C757.873 118.896 753.657 115.433 747.816 112.904C741.974 110.375 734.748 109.11 726.136 109.11C722.403 109.11 719.211 109.17 716.561 109.291C713.911 109.411 711.773 109.622 710.147 109.923V160.147ZM890.371 135.125L893.352 135.758L882.873 169H788.025V165.658H792.631C797.81 165.658 801.514 163.972 803.742 160.599C805.007 158.672 805.639 154.216 805.639 147.23V68.1895C805.639 60.5413 804.796 55.7537 803.11 53.8267C800.761 51.1769 797.268 49.8521 792.631 49.8521H788.025V46.5098H843.488V49.8521C836.984 49.7918 832.408 50.394 829.758 51.6587C827.168 52.9233 825.392 54.5192 824.428 56.4463C823.465 58.3734 822.983 62.9803 822.983 70.2671V147.23C822.983 152.228 823.465 155.661 824.428 157.528C825.151 158.792 826.265 159.726 827.771 160.328C829.276 160.93 833.973 161.231 841.862 161.231H850.805C860.2 161.231 866.794 160.539 870.588 159.154C874.382 157.769 877.845 155.33 880.976 151.837C884.108 148.284 887.239 142.713 890.371 135.125ZM974.481 46.5098H1017.21V49.8521H1014.86C1013.29 49.8521 1011 50.5446 1007.99 51.9297C1004.98 53.3148 1002.24 55.3021 999.774 57.8916C997.305 60.4811 994.263 64.6966 990.65 70.5381L961.112 117.059V147.772C961.112 155.3 961.955 159.997 963.641 161.864C965.929 164.393 969.543 165.658 974.481 165.658H978.455V169H926.424V165.658H930.76C935.939 165.658 939.613 164.092 941.78 160.96C943.105 159.033 943.768 154.637 943.768 147.772V118.775L910.164 67.4668C906.19 61.4447 903.48 57.6808 902.034 56.1753C900.649 54.6698 897.729 52.8631 893.272 50.7554C892.068 50.1532 890.321 49.8521 888.033 49.8521V46.5098H940.425V49.8521H937.716C934.885 49.8521 932.265 50.5145 929.857 51.8394C927.508 53.1642 926.334 55.1515 926.334 57.8013C926.334 59.9692 928.17 63.8836 931.844 69.5444L957.408 109.02L981.436 71.2607C985.05 65.5999 986.856 61.3844 986.856 58.6143C986.856 56.9281 986.404 55.4225 985.501 54.0977C984.658 52.7728 983.424 51.749 981.798 51.0264C980.172 50.2435 977.733 49.8521 974.481 49.8521V46.5098ZM1128.7 127.989H1081.27L1072.96 147.32C1070.92 152.078 1069.89 155.631 1069.89 157.979C1069.89 159.846 1070.77 161.502 1072.51 162.948C1074.32 164.333 1078.17 165.236 1084.08 165.658V169H1045.5V165.658C1050.62 164.754 1053.93 163.58 1055.44 162.135C1058.51 159.244 1061.91 153.373 1065.65 144.52L1108.74 43.7095H1111.9L1154.53 145.604C1157.97 153.794 1161.07 159.124 1163.84 161.593C1166.67 164.002 1170.58 165.357 1175.58 165.658V169H1127.25V165.658C1132.13 165.417 1135.41 164.604 1137.1 163.219C1138.85 161.834 1139.72 160.147 1139.72 158.16C1139.72 155.51 1138.52 151.325 1136.11 145.604L1128.7 127.989ZM1126.17 121.305L1105.39 71.8027L1084.08 121.305H1126.17ZM1164.21 46.5098H1197.45L1272.34 138.377V67.7378C1272.34 60.2101 1271.49 55.5129 1269.81 53.646C1267.58 51.1167 1264.06 49.8521 1259.24 49.8521H1254.99V46.5098H1297.63V49.8521H1293.29C1288.12 49.8521 1284.44 51.4178 1282.27 54.5493C1280.95 56.4764 1280.29 60.8726 1280.29 67.7378V170.987H1277.04L1196.28 72.3447V147.772C1196.28 155.3 1197.09 159.997 1198.72 161.864C1201.01 164.393 1204.53 165.658 1209.29 165.658H1213.62V169H1170.99V165.658H1175.23C1180.47 165.658 1184.17 164.092 1186.34 160.96C1187.67 159.033 1188.33 154.637 1188.33 147.772V62.5889C1184.78 58.4336 1182.07 55.6935 1180.2 54.3687C1178.39 53.0438 1175.71 51.8092 1172.16 50.665C1170.41 50.123 1167.76 49.8521 1164.21 49.8521V46.5098ZM1292.4 169V165.658H1297.01C1302.19 165.658 1305.86 164.002 1308.03 160.689C1309.35 158.702 1310.02 154.246 1310.02 147.32V68.1895C1310.02 60.5413 1309.17 55.7537 1307.49 53.8267C1305.14 51.1769 1301.65 49.8521 1297.01 49.8521H1292.4V46.5098H1342.27C1360.57 46.5098 1374.48 48.5874 1384 52.7427C1393.57 56.8979 1401.25 63.8234 1407.03 73.519C1412.88 83.2147 1415.8 94.4159 1415.8 107.123C1415.8 124.165 1410.62 138.408 1400.26 149.85C1388.64 162.617 1370.93 169 1347.14 169H1292.4ZM1327.36 160.147C1335.01 161.834 1341.42 162.677 1346.6 162.677C1360.57 162.677 1372.17 157.769 1381.38 147.953C1390.59 138.137 1395.2 124.828 1395.2 108.026C1395.2 91.1037 1390.59 77.7646 1381.38 68.0088C1372.17 58.2529 1360.33 53.375 1345.88 53.375C1340.46 53.375 1334.29 54.2482 1327.36 55.9946V160.147ZM709.967 324.639V360.32C709.967 368.029 710.81 372.816 712.496 374.683C714.785 377.333 718.247 378.658 722.884 378.658H727.582V382H675.099V378.658H679.706C684.885 378.658 688.588 376.972 690.816 373.599C692.021 371.732 692.623 367.306 692.623 360.32V281.189C692.623 273.481 691.81 268.694 690.184 266.827C687.835 264.177 684.343 262.852 679.706 262.852H675.099V259.51H719.994C730.954 259.51 739.596 260.654 745.919 262.942C752.242 265.171 757.572 268.965 761.908 274.324C766.244 279.684 768.412 286.037 768.412 293.384C768.412 303.381 765.099 311.511 758.475 317.774C751.911 324.037 742.607 327.168 730.562 327.168C727.612 327.168 724.42 326.958 720.987 326.536C717.555 326.115 713.881 325.482 709.967 324.639ZM709.967 319.49C713.159 320.092 715.989 320.544 718.458 320.845C720.927 321.146 723.035 321.297 724.781 321.297C731.044 321.297 736.434 318.888 740.951 314.07C745.528 309.192 747.816 302.899 747.816 295.191C747.816 289.891 746.732 284.983 744.564 280.467C742.396 275.89 739.325 272.487 735.35 270.259C731.375 267.971 726.859 266.827 721.8 266.827C718.729 266.827 714.785 267.399 709.967 268.543V319.49ZM848.547 340.989H801.123L792.812 360.32C790.765 365.078 789.741 368.631 789.741 370.979C789.741 372.846 790.614 374.502 792.36 375.948C794.167 377.333 798.021 378.236 803.923 378.658V382H765.351V378.658C770.47 377.754 773.782 376.58 775.288 375.135C778.359 372.244 781.761 366.373 785.495 357.52L828.584 256.709H831.745L874.382 358.604C877.815 366.794 880.916 372.124 883.686 374.593C886.517 377.002 890.431 378.357 895.429 378.658V382H847.102V378.658C851.98 378.417 855.262 377.604 856.948 376.219C858.694 374.834 859.567 373.147 859.567 371.16C859.567 368.51 858.363 364.325 855.954 358.604L848.547 340.989ZM846.018 334.305L825.241 284.803L803.923 334.305H846.018ZM1011.52 382H978.817L937.354 324.729C934.283 324.85 931.784 324.91 929.857 324.91C929.074 324.91 928.231 324.91 927.327 324.91C926.424 324.85 925.491 324.79 924.527 324.729V360.32C924.527 368.029 925.37 372.816 927.056 374.683C929.345 377.333 932.777 378.658 937.354 378.658H942.142V382H889.659V378.658H894.266C899.445 378.658 903.148 376.972 905.377 373.599C906.641 371.732 907.274 367.306 907.274 360.32V281.189C907.274 273.481 906.431 268.694 904.744 266.827C902.396 264.177 898.903 262.852 894.266 262.852H889.659V259.51H934.283C947.291 259.51 956.866 260.473 963.008 262.4C969.211 264.267 974.451 267.76 978.726 272.879C983.062 277.938 985.23 283.99 985.23 291.036C985.23 298.563 982.761 305.097 977.823 310.638C972.945 316.178 965.357 320.092 955.059 322.381L980.352 357.52C986.133 365.59 991.102 370.949 995.257 373.599C999.412 376.249 1004.83 377.935 1011.52 378.658V382ZM924.527 319.039C925.671 319.039 926.665 319.069 927.508 319.129C928.351 319.129 929.044 319.129 929.586 319.129C941.269 319.129 950.061 316.6 955.963 311.541C961.925 306.482 964.905 300.039 964.905 292.21C964.905 284.562 962.497 278.359 957.679 273.602C952.921 268.784 946.598 266.375 938.709 266.375C935.216 266.375 930.489 266.947 924.527 268.091V319.039ZM1105.83 259.51L1107.19 288.235H1103.76C1103.09 283.177 1102.19 279.563 1101.05 277.396C1099.18 273.903 1096.68 271.343 1093.55 269.717C1090.48 268.031 1086.41 267.188 1081.35 267.188H1064.1V360.772C1064.1 368.3 1064.91 372.997 1066.54 374.864C1068.83 377.393 1072.35 378.658 1077.11 378.658H1081.35V382H1029.41V378.658H1033.75C1038.93 378.658 1042.6 377.092 1044.77 373.96C1046.09 372.033 1046.76 367.637 1046.76 360.772V267.188H1032.03C1026.31 267.188 1022.25 267.61 1019.84 268.453C1016.71 269.597 1014.03 271.795 1011.8 275.047C1009.57 278.299 1008.25 282.695 1007.82 288.235H1004.39L1005.84 259.51H1105.83ZM1098.35 259.51H1131.59L1206.48 351.377V280.738C1206.48 273.21 1205.63 268.513 1203.95 266.646C1201.72 264.117 1198.19 262.852 1193.38 262.852H1189.13V259.51H1231.77V262.852H1227.43C1222.25 262.852 1218.58 264.418 1216.41 267.549C1215.09 269.476 1214.42 273.873 1214.42 280.738V383.987H1211.17L1130.42 285.345V360.772C1130.42 368.3 1131.23 372.997 1132.85 374.864C1135.14 377.393 1138.67 378.658 1143.42 378.658H1147.76V382H1105.12V378.658H1109.37C1114.61 378.658 1118.31 377.092 1120.48 373.96C1121.8 372.033 1122.47 367.637 1122.47 360.772V275.589C1118.91 271.434 1116.2 268.694 1114.34 267.369C1112.53 266.044 1109.85 264.809 1106.3 263.665C1104.55 263.123 1101.9 262.852 1098.35 262.852V259.51ZM1262.04 266.194V314.612H1288.96C1295.94 314.612 1300.61 313.558 1302.96 311.451C1306.09 308.681 1307.84 303.803 1308.2 296.817H1311.54V339.454H1308.2C1307.36 333.492 1306.51 329.668 1305.67 327.981C1304.59 325.874 1302.81 324.218 1300.34 323.013C1297.87 321.809 1294.08 321.207 1288.96 321.207H1262.04V361.585C1262.04 367.005 1262.28 370.317 1262.76 371.521C1263.24 372.666 1264.09 373.599 1265.29 374.322C1266.5 374.984 1268.78 375.315 1272.16 375.315H1292.93C1299.86 375.315 1304.89 374.834 1308.02 373.87C1311.15 372.907 1314.16 371.01 1317.05 368.179C1320.79 364.445 1324.61 358.815 1328.52 351.287H1332.14L1321.57 382H1227.17V378.658H1231.51C1234.4 378.658 1237.14 377.965 1239.73 376.58C1241.66 375.617 1242.95 374.171 1243.61 372.244C1244.33 370.317 1244.7 366.373 1244.7 360.411V280.828C1244.7 273.06 1243.91 268.272 1242.35 266.465C1240.18 264.056 1236.57 262.852 1231.51 262.852H1227.17V259.51H1321.57L1322.92 286.338H1319.4C1318.14 279.895 1316.72 275.468 1315.16 273.06C1313.65 270.651 1311.39 268.814 1308.38 267.549C1305.97 266.646 1301.73 266.194 1295.64 266.194H1262.04ZM1450.39 382H1417.69L1376.23 324.729C1373.16 324.85 1370.66 324.91 1368.73 324.91C1367.95 324.91 1367.11 324.91 1366.2 324.91C1365.3 324.85 1364.37 324.79 1363.4 324.729V360.32C1363.4 368.029 1364.25 372.816 1365.93 374.683C1368.22 377.333 1371.65 378.658 1376.23 378.658H1381.02V382H1328.54V378.658H1333.14C1338.32 378.658 1342.02 376.972 1344.25 373.599C1345.52 371.732 1346.15 367.306 1346.15 360.32V281.189C1346.15 273.481 1345.31 268.694 1343.62 266.827C1341.27 264.177 1337.78 262.852 1333.14 262.852H1328.54V259.51H1373.16C1386.17 259.51 1395.74 260.473 1401.88 262.4C1408.09 264.267 1413.33 267.76 1417.6 272.879C1421.94 277.938 1424.11 283.99 1424.11 291.036C1424.11 298.563 1421.64 305.097 1416.7 310.638C1411.82 316.178 1404.23 320.092 1393.94 322.381L1419.23 357.52C1425.01 365.59 1429.98 370.949 1434.13 373.599C1438.29 376.249 1443.71 377.935 1450.39 378.658V382ZM1363.4 319.039C1364.55 319.039 1365.54 319.069 1366.38 319.129C1367.23 319.129 1367.92 319.129 1368.46 319.129C1380.14 319.129 1388.94 316.6 1394.84 311.541C1400.8 306.482 1403.78 300.039 1403.78 292.21C1403.78 284.562 1401.37 278.359 1396.56 273.602C1391.8 268.784 1385.47 266.375 1377.59 266.375C1374.09 266.375 1369.37 266.947 1363.4 268.091V319.039ZM1522.49 256.709V299.075H1519.15C1518.06 290.945 1516.11 284.472 1513.28 279.654C1510.5 274.836 1506.53 271.012 1501.35 268.182C1496.17 265.351 1490.81 263.936 1485.27 263.936C1479.01 263.936 1473.83 265.863 1469.74 269.717C1465.64 273.511 1463.59 277.847 1463.59 282.725C1463.59 286.459 1464.89 289.861 1467.48 292.933C1471.21 297.449 1480.09 303.471 1494.12 310.999C1505.57 317.142 1513.37 321.869 1517.52 325.181C1521.74 328.433 1524.96 332.287 1527.19 336.744C1529.47 341.2 1530.62 345.867 1530.62 350.745C1530.62 360.019 1527.01 368.029 1519.78 374.773C1512.61 381.458 1503.37 384.8 1492.05 384.8C1488.49 384.8 1485.15 384.529 1482.02 383.987C1480.15 383.686 1476.27 382.602 1470.37 380.735C1464.53 378.808 1460.82 377.845 1459.26 377.845C1457.75 377.845 1456.55 378.296 1455.64 379.2C1454.8 380.103 1454.17 381.97 1453.75 384.8H1450.4V342.796H1453.75C1455.31 351.588 1457.42 358.182 1460.07 362.579C1462.72 366.915 1466.75 370.528 1472.17 373.418C1477.65 376.309 1483.65 377.754 1490.15 377.754C1497.68 377.754 1503.61 375.767 1507.95 371.792C1512.34 367.818 1514.54 363.121 1514.54 357.701C1514.54 354.69 1513.7 351.648 1512.01 348.577C1510.38 345.506 1507.83 342.645 1504.33 339.996C1501.98 338.189 1495.57 334.365 1485.09 328.523C1474.61 322.622 1467.15 317.924 1462.69 314.432C1458.29 310.939 1454.95 307.085 1452.66 302.869C1450.37 298.654 1449.23 294.017 1449.23 288.958C1449.23 280.166 1452.6 272.608 1459.35 266.285C1466.09 259.901 1474.67 256.709 1485.09 256.709C1491.6 256.709 1498.49 258.305 1505.78 261.497C1509.15 263.003 1511.53 263.755 1512.91 263.755C1514.48 263.755 1515.74 263.304 1516.71 262.4C1517.73 261.437 1518.54 259.54 1519.15 256.709H1522.49ZM1552.67 364.476C1555.5 364.476 1557.88 365.469 1559.81 367.457C1561.73 369.384 1562.7 371.732 1562.7 374.502C1562.7 377.273 1561.7 379.651 1559.72 381.639C1557.79 383.566 1555.44 384.529 1552.67 384.529C1549.9 384.529 1547.52 383.566 1545.53 381.639C1543.61 379.651 1542.64 377.273 1542.64 374.502C1542.64 371.672 1543.61 369.293 1545.53 367.366C1547.52 365.439 1549.9 364.476 1552.67 364.476Z" fill="white"/>
<path d="M539.527 459V26" stroke="white" stroke-width="6"/>
<path d="M222.031 163.086C241.309 167.188 255.732 173.75 265.303 182.773C278.564 195.352 285.195 210.732 285.195 228.916C285.195 242.725 280.82 255.986 272.07 268.701C263.32 281.279 251.289 290.508 235.977 296.387C220.801 302.129 197.559 305 166.25 305H35V297.412H45.459C57.0801 297.412 65.4199 293.721 70.4785 286.338C73.623 281.553 75.1953 271.367 75.1953 255.781V76.1328C75.1953 58.9062 73.2129 48.0371 69.248 43.5254C63.916 37.5098 55.9863 34.502 45.459 34.502H35V26.9141H155.176C177.598 26.9141 195.576 28.5547 209.111 31.8359C229.619 36.7578 245.273 45.5078 256.074 58.0859C266.875 70.5273 272.275 84.8828 272.275 101.152C272.275 115.098 268.037 127.607 259.561 138.682C251.084 149.619 238.574 157.754 222.031 163.086ZM114.57 152.012C119.629 152.969 125.371 153.721 131.797 154.268C138.359 154.678 145.537 154.883 153.33 154.883C173.291 154.883 188.262 152.764 198.242 148.525C208.359 144.15 216.084 137.52 221.416 128.633C226.748 119.746 229.414 110.039 229.414 99.5117C229.414 83.2422 222.783 69.3652 209.521 57.8809C196.26 46.3965 176.914 40.6543 151.484 40.6543C137.812 40.6543 125.508 42.1582 114.57 45.166V152.012ZM114.57 284.902C130.43 288.594 146.084 290.439 161.533 290.439C186.279 290.439 205.146 284.902 218.135 273.828C231.123 262.617 237.617 248.809 237.617 232.402C237.617 221.602 234.678 211.211 228.799 201.23C222.92 191.25 213.35 183.389 200.088 177.646C186.826 171.904 170.42 169.033 150.869 169.033C142.393 169.033 135.146 169.17 129.131 169.443C123.115 169.717 118.262 170.195 114.57 170.879V284.902Z" fill="white"/>
<path d="M122.436 446H337.768L333.461 407.035C326.352 414.965 318.49 420.502 309.877 423.646C301.264 426.791 286.293 428.363 264.965 428.363H244.662C226.752 428.363 216.088 427.68 212.67 426.312C209.252 424.945 206.723 422.826 205.082 419.955C202.895 415.717 201.801 407.924 201.801 396.576V295L162.426 299V396.576C162.426 412.436 160.99 422.553 158.119 426.928C153.061 434.584 144.652 438.412 132.895 438.412H122.436V446Z" fill="white"/>
<path d="M472.186 167.914H375.184V175.502C382.566 175.502 388.104 176.391 391.795 178.168C395.486 179.809 398.289 182.133 400.203 185.141C402.254 188.148 403.279 191.566 403.279 195.395C403.279 201.684 399.178 211.254 390.975 224.105L336.424 309.828L278.387 220.209C270.047 207.357 265.877 198.471 265.877 193.549C265.877 187.533 268.543 183.021 273.875 180.014C279.344 177.006 285.291 175.502 291.717 175.502H297.869V167.914H231.027L255.698 256L305.457 331.977V397.807C305.457 413.393 303.953 423.373 300.945 427.748C296.023 434.857 287.684 438.412 275.926 438.412H266.082V446H384.207V438.412H375.184C363.973 438.412 355.77 435.541 350.574 429.799C346.746 425.561 344.832 414.896 344.832 397.807V328.08L411.893 222.465C420.096 209.203 427 199.633 432.605 193.754C438.211 187.875 444.432 183.363 451.268 180.219C458.104 177.074 463.299 175.502 466.854 175.502H472.186V167.914Z" fill="white"/>
</svg>
